<svg xmlns="http://www.w3.org/2000/svg" xmlns:xlink="http://www.w3.org/1999/xlink" viewBox="0 0 100 100"><defs><style>.cls-1{fill:#87acfc;}.cls-2{fill:#c6d7fc;}.cls-3{fill:#14003d;}.cls-4{opacity:0.25;}.cls-5{fill:#b2bad7;}.cls-6{fill:none;stroke:#fccf20;stroke-linecap:round;stroke-miterlimit:10;stroke-width:2px;}.cls-7{fill:#eceef5;}.cls-8{isolation:isolate;}.cls-9{clip-path:url(#clip-path);}.cls-10{fill:#7b9de6;}.cls-11{fill:#e6e6e6;}.cls-12{clip-path:url(#clip-path-2);}.cls-13{fill:#b4c4e6;}</style><clipPath id="clip-path"><path class="cls-1" d="M61.14386,20.7332,61.13338,24.432c-.00465,1.64067-1.08292,3.2788-3.23643,4.53028-4.336,2.51978-11.38888,2.52065-15.75321.00091-2.19582-1.26776-3.29231-2.93183-3.2876-4.59342l.01048-3.69874c-.00471,1.66159,1.09178,3.32565,3.2876,4.59341,4.36433,2.51975,11.41726,2.51888,15.75321-.00091C60.061,24.012,61.13921,22.37387,61.14386,20.7332Z"/></clipPath><clipPath id="clip-path-2"><path class="cls-2" d="M61.14386,24.432l-.01048,3.69874c-.00465,1.64068-1.08292,3.2788-3.23643,4.53029-4.336,2.51978-11.38888,2.52065-15.75321.0009-2.19582-1.26775-3.29231-2.93182-3.2876-4.59341l.01048-3.69875c-.00471,1.66159,1.09178,3.32566,3.2876,4.59342,4.36433,2.51974,11.41726,2.51887,15.75321-.00091C60.061,27.71075,61.13921,26.07262,61.14386,24.432Z"/></clipPath></defs><g id="info"><rect class="cls-3" x="23" y="10" width="54" height="32.5" rx="4.8"/><g class="cls-4"><path class="cls-5" d="M27.8,42.5H72.2A4.8,4.8,0,0,0,77,37.7V14.8S72.24492,21.57436,57.2,28.55C42.43661,35.39511,23.38176,37.44141,23,37.7A4.8,4.8,0,0,0,27.8,42.5Z"/></g><line class="cls-6" x1="25.4" y1="45.49995" x2="74.6" y2="45.49995"/><line class="cls-6" x1="50" y1="45.49995" x2="50" y2="56.49995"/><line class="cls-6" x1="44" y1="45.49995" x2="41" y2="60.49995"/><line class="cls-6" x1="56" y1="45.49995" x2="59" y2="60.49995"/><circle class="cls-7" cx="25" cy="62" r="10"/><path class="cls-7" d="M40,90a15,15,0,0,0-30,0"/><circle class="cls-7" cx="75" cy="62" r="10"/><path class="cls-7" d="M90,90a15,15,0,0,0-30,0"/><g class="cls-8"><g class="cls-8"><path class="cls-1" d="M61.14386,20.7332,61.13338,24.432c-.00465,1.64067-1.08292,3.2788-3.23643,4.53028-4.336,2.51978-11.38888,2.52065-15.75321.00091-2.19582-1.26776-3.29231-2.93183-3.2876-4.59342l.01048-3.69874c-.00471,1.66159,1.09178,3.32565,3.2876,4.59341,4.36433,2.51975,11.41726,2.51888,15.75321-.00091C60.061,24.012,61.13921,22.37387,61.14386,20.7332Z"/><g class="cls-9"><g class="cls-8"><path class="cls-10" d="M61.14386,20.7332,61.13338,24.432c-.00465,1.64067-1.08292,3.2788-3.23643,4.53028-4.336,2.51978-11.38888,2.52065-15.75321.00091-2.19582-1.26776-3.29231-2.93183-3.2876-4.59342l.01048-3.69874c-.00471,1.66159,1.09178,3.32565,3.2876,4.59341,4.36433,2.51975,11.41726,2.51888,15.75321-.00091,2.15352-1.25148,3.23178-2.88961,3.23643-4.53028"/></g></g></g><path class="cls-1" d="M57.85607,16.13947c4.36433,2.51975,4.38589,6.60507.05136,9.124-4.33595,2.51979-11.38888,2.52066-15.75321.00091s-4.38587-6.60506-.04991-9.12484C46.43883,13.6206,53.49175,13.61973,57.85607,16.13947Z"/></g><path class="cls-11" d="M61.14386,28.13069l-.01048,3.69875c-.00465,1.64067-1.08292,3.2788-3.23643,4.53028-4.336,2.51979-11.38888,2.52065-15.75321.00091-2.19582-1.26776-3.29231-2.93182-3.2876-4.59341l.01048-3.69875c-.00471,1.66159,1.09178,3.32566,3.2876,4.59341,4.36433,2.51975,11.41726,2.51888,15.75321-.0009C60.061,31.40949,61.13921,29.77137,61.14386,28.13069Z"/><g class="cls-8"><g class="cls-8"><path class="cls-2" d="M61.14386,24.432l-.01048,3.69874c-.00465,1.64068-1.08292,3.2788-3.23643,4.53029-4.336,2.51978-11.38888,2.52065-15.75321.0009-2.19582-1.26775-3.29231-2.93182-3.2876-4.59341l.01048-3.69875c-.00471,1.66159,1.09178,3.32566,3.2876,4.59342,4.36433,2.51974,11.41726,2.51887,15.75321-.00091C60.061,27.71075,61.13921,26.07262,61.14386,24.432Z"/><g class="cls-12"><path class="cls-13" d="M61.14386,24.432l-.01048,3.69874c-.00465,1.64068-1.08292,3.2788-3.23643,4.53029-4.336,2.51978-11.38888,2.52065-15.75321.0009-2.19582-1.26775-3.29231-2.93182-3.2876-4.59341l.01048-3.69875c-.00471,1.66159,1.09178,3.32566,3.2876,4.59342,4.36433,2.51974,11.41726,2.51887,15.75321-.00091,2.15352-1.25148,3.23178-2.88961,3.23643-4.53028"/></g></g></g><circle class="cls-5" cx="50" cy="72" r="10"/><path class="cls-5" d="M61.158,90A14.95,14.95,0,0,0,38.842,90Z"/></g></svg>